<mxfile host="app.diagrams.net" modified="2020-10-19T21:40:07.540Z" agent="5.0 (Windows NT 10.0; Win64; x64) AppleWebKit/537.36 (KHTML, like Gecko) Chrome/86.0.4240.80 Safari/537.36 Edg/86.0.622.43" etag="5WGs5ZNakye_GslKacNS" version="13.8.0" type="github">
  <diagram id="dRUiO_fBCLAAtDsuohW3" name="Page-1">
    <mxGraphModel dx="868" dy="450" grid="1" gridSize="10" guides="1" tooltips="1" connect="1" arrows="1" fold="1" page="1" pageScale="1" pageWidth="827" pageHeight="1169" math="0" shadow="0">
      <root>
        <mxCell id="0" />
        <mxCell id="1" parent="0" />
        <mxCell id="XjwWoGs6GViRfNdkRNjS-20" style="edgeStyle=orthogonalEdgeStyle;rounded=0;orthogonalLoop=1;jettySize=auto;html=1;startArrow=none;startFill=0;endArrow=ERzeroToMany;endFill=1;" edge="1" parent="1" source="XjwWoGs6GViRfNdkRNjS-1" target="XjwWoGs6GViRfNdkRNjS-18">
          <mxGeometry relative="1" as="geometry" />
        </mxCell>
        <mxCell id="XjwWoGs6GViRfNdkRNjS-22" style="edgeStyle=orthogonalEdgeStyle;rounded=0;orthogonalLoop=1;jettySize=auto;html=1;entryX=0;entryY=0.5;entryDx=0;entryDy=0;startArrow=none;startFill=0;endArrow=ERzeroToMany;endFill=1;" edge="1" parent="1" source="XjwWoGs6GViRfNdkRNjS-1" target="XjwWoGs6GViRfNdkRNjS-19">
          <mxGeometry relative="1" as="geometry" />
        </mxCell>
        <mxCell id="XjwWoGs6GViRfNdkRNjS-1" value="AEROPUERTOS" style="whiteSpace=wrap;html=1;align=center;" vertex="1" parent="1">
          <mxGeometry x="190" y="180" width="100" height="40" as="geometry" />
        </mxCell>
        <mxCell id="XjwWoGs6GViRfNdkRNjS-2" value="codigo" style="ellipse;whiteSpace=wrap;html=1;align=center;fontStyle=4;" vertex="1" parent="1">
          <mxGeometry x="100" y="100" width="100" height="40" as="geometry" />
        </mxCell>
        <mxCell id="XjwWoGs6GViRfNdkRNjS-3" value="nombre" style="ellipse;whiteSpace=wrap;html=1;align=center;" vertex="1" parent="1">
          <mxGeometry x="240" y="90" width="100" height="40" as="geometry" />
        </mxCell>
        <mxCell id="XjwWoGs6GViRfNdkRNjS-4" value="ciudad" style="ellipse;whiteSpace=wrap;html=1;align=center;" vertex="1" parent="1">
          <mxGeometry x="230" y="260" width="100" height="40" as="geometry" />
        </mxCell>
        <mxCell id="XjwWoGs6GViRfNdkRNjS-6" value="pais&lt;br&gt;" style="ellipse;whiteSpace=wrap;html=1;align=center;" vertex="1" parent="1">
          <mxGeometry x="110" y="260" width="100" height="40" as="geometry" />
        </mxCell>
        <mxCell id="XjwWoGs6GViRfNdkRNjS-7" value="" style="endArrow=none;html=1;rounded=0;exitX=1;exitY=1;exitDx=0;exitDy=0;entryX=0;entryY=0;entryDx=0;entryDy=0;" edge="1" parent="1" source="XjwWoGs6GViRfNdkRNjS-2" target="XjwWoGs6GViRfNdkRNjS-1">
          <mxGeometry relative="1" as="geometry">
            <mxPoint x="330" y="300" as="sourcePoint" />
            <mxPoint x="490" y="300" as="targetPoint" />
          </mxGeometry>
        </mxCell>
        <mxCell id="XjwWoGs6GViRfNdkRNjS-8" value="" style="endArrow=none;html=1;rounded=0;exitX=0.5;exitY=0;exitDx=0;exitDy=0;entryX=0;entryY=1;entryDx=0;entryDy=0;" edge="1" parent="1" source="XjwWoGs6GViRfNdkRNjS-6" target="XjwWoGs6GViRfNdkRNjS-1">
          <mxGeometry relative="1" as="geometry">
            <mxPoint x="330" y="300" as="sourcePoint" />
            <mxPoint x="490" y="300" as="targetPoint" />
          </mxGeometry>
        </mxCell>
        <mxCell id="XjwWoGs6GViRfNdkRNjS-9" value="" style="endArrow=none;html=1;rounded=0;exitX=1;exitY=0;exitDx=0;exitDy=0;entryX=0.5;entryY=1;entryDx=0;entryDy=0;" edge="1" parent="1" source="XjwWoGs6GViRfNdkRNjS-1" target="XjwWoGs6GViRfNdkRNjS-3">
          <mxGeometry relative="1" as="geometry">
            <mxPoint x="440" y="190" as="sourcePoint" />
            <mxPoint x="600" y="190" as="targetPoint" />
          </mxGeometry>
        </mxCell>
        <mxCell id="XjwWoGs6GViRfNdkRNjS-10" value="" style="endArrow=none;html=1;rounded=0;exitX=1;exitY=1;exitDx=0;exitDy=0;entryX=0.5;entryY=0;entryDx=0;entryDy=0;" edge="1" parent="1" source="XjwWoGs6GViRfNdkRNjS-1" target="XjwWoGs6GViRfNdkRNjS-4">
          <mxGeometry relative="1" as="geometry">
            <mxPoint x="330" y="300" as="sourcePoint" />
            <mxPoint x="490" y="300" as="targetPoint" />
          </mxGeometry>
        </mxCell>
        <mxCell id="XjwWoGs6GViRfNdkRNjS-21" style="edgeStyle=orthogonalEdgeStyle;rounded=0;orthogonalLoop=1;jettySize=auto;html=1;entryX=1;entryY=0.5;entryDx=0;entryDy=0;startArrow=none;startFill=0;endArrow=ERmandOne;endFill=0;" edge="1" parent="1" source="XjwWoGs6GViRfNdkRNjS-11" target="XjwWoGs6GViRfNdkRNjS-18">
          <mxGeometry relative="1" as="geometry" />
        </mxCell>
        <mxCell id="XjwWoGs6GViRfNdkRNjS-23" style="edgeStyle=orthogonalEdgeStyle;rounded=0;orthogonalLoop=1;jettySize=auto;html=1;entryX=1;entryY=0.5;entryDx=0;entryDy=0;startArrow=none;startFill=0;endArrow=ERmandOne;endFill=0;" edge="1" parent="1" source="XjwWoGs6GViRfNdkRNjS-11" target="XjwWoGs6GViRfNdkRNjS-19">
          <mxGeometry relative="1" as="geometry" />
        </mxCell>
        <mxCell id="XjwWoGs6GViRfNdkRNjS-11" value="AVIONES" style="whiteSpace=wrap;html=1;align=center;" vertex="1" parent="1">
          <mxGeometry x="580" y="180" width="100" height="40" as="geometry" />
        </mxCell>
        <mxCell id="XjwWoGs6GViRfNdkRNjS-24" style="rounded=0;orthogonalLoop=1;jettySize=auto;html=1;exitX=0.5;exitY=1;exitDx=0;exitDy=0;entryX=0.25;entryY=0;entryDx=0;entryDy=0;startArrow=none;startFill=0;endArrow=none;endFill=0;" edge="1" parent="1" source="XjwWoGs6GViRfNdkRNjS-12" target="XjwWoGs6GViRfNdkRNjS-11">
          <mxGeometry relative="1" as="geometry" />
        </mxCell>
        <mxCell id="XjwWoGs6GViRfNdkRNjS-12" value="id_avion" style="ellipse;whiteSpace=wrap;html=1;align=center;fontStyle=4;" vertex="1" parent="1">
          <mxGeometry x="570" y="80" width="100" height="40" as="geometry" />
        </mxCell>
        <mxCell id="XjwWoGs6GViRfNdkRNjS-25" style="edgeStyle=none;rounded=0;orthogonalLoop=1;jettySize=auto;html=1;exitX=0.5;exitY=1;exitDx=0;exitDy=0;entryX=0.75;entryY=0;entryDx=0;entryDy=0;startArrow=none;startFill=0;endArrow=none;endFill=0;" edge="1" parent="1" source="XjwWoGs6GViRfNdkRNjS-15" target="XjwWoGs6GViRfNdkRNjS-11">
          <mxGeometry relative="1" as="geometry" />
        </mxCell>
        <mxCell id="XjwWoGs6GViRfNdkRNjS-15" value="modelo" style="ellipse;whiteSpace=wrap;html=1;align=center;" vertex="1" parent="1">
          <mxGeometry x="700" y="100" width="100" height="40" as="geometry" />
        </mxCell>
        <mxCell id="XjwWoGs6GViRfNdkRNjS-26" style="edgeStyle=none;rounded=0;orthogonalLoop=1;jettySize=auto;html=1;exitX=0;exitY=1;exitDx=0;exitDy=0;startArrow=none;startFill=0;endArrow=none;endFill=0;entryX=1;entryY=0.5;entryDx=0;entryDy=0;" edge="1" parent="1" source="XjwWoGs6GViRfNdkRNjS-16" target="XjwWoGs6GViRfNdkRNjS-11">
          <mxGeometry relative="1" as="geometry">
            <mxPoint x="690" y="210" as="targetPoint" />
          </mxGeometry>
        </mxCell>
        <mxCell id="XjwWoGs6GViRfNdkRNjS-16" value="capacidad" style="ellipse;whiteSpace=wrap;html=1;align=center;" vertex="1" parent="1">
          <mxGeometry x="727" y="170" width="100" height="40" as="geometry" />
        </mxCell>
        <mxCell id="XjwWoGs6GViRfNdkRNjS-18" value="aterriza" style="shape=rhombus;perimeter=rhombusPerimeter;whiteSpace=wrap;html=1;align=center;" vertex="1" parent="1">
          <mxGeometry x="390" y="120" width="120" height="60" as="geometry" />
        </mxCell>
        <mxCell id="XjwWoGs6GViRfNdkRNjS-19" value="despega" style="shape=rhombus;perimeter=rhombusPerimeter;whiteSpace=wrap;html=1;align=center;" vertex="1" parent="1">
          <mxGeometry x="390" y="240" width="120" height="60" as="geometry" />
        </mxCell>
      </root>
    </mxGraphModel>
  </diagram>
</mxfile>
